<svg xmlns="http://www.w3.org/2000/svg" xmlns:xlink="http://www.w3.org/1999/xlink" width="228" height="51" viewBox="0 0 228 51">
  <metadata><?xpacket begin="﻿" id="W5M0MpCehiHzreSzNTczkc9d"?>
<x:xmpmeta xmlns:x="adobe:ns:meta/" x:xmptk="Adobe XMP Core 5.6-c138 79.159824, 2016/09/14-01:09:01        ">
   <rdf:RDF xmlns:rdf="http://www.w3.org/1999/02/22-rdf-syntax-ns#">
      <rdf:Description rdf:about=""/>
   </rdf:RDF>
</x:xmpmeta>
                                                                                                    
                                                                                                    
                                                                                                    
                                                                                                    
                                                                                                    
                                                                                                    
                                                                                                    
                                                                                                    
                                                                                                    
                                                                                                    
                                                                                                    
                                                                                                    
                                                                                                    
                                                                                                    
                                                                                                    
                                                                                                    
                                                                                                    
                                                                                                    
                                                                                                    
                                                                                                    
                           
<?xpacket end="w"?></metadata>
<defs>
    <style>
      .cls-1 {
        fill: #353535;
      }

      .cls-1, .cls-2 {
        fill-rule: evenodd;
      }

      .cls-2 {
        filter: url(#filter);
      }
    </style>
    <filter id="filter" x="0" y="0" width="45" height="51" filterUnits="userSpaceOnUse">
      <feFlood result="flood" flood-color="#e5493a"/>
      <feComposite result="composite" operator="in" in2="SourceGraphic"/>
      <feBlend result="blend" in2="SourceGraphic"/>
    </filter>
  </defs>
  <path id="FLEXBOX" class="cls-1" d="M73.444,20.642V15.6H55.807V39h5.615V31.009h9.467V25.97H61.422V20.642H73.444ZM82.95,33.385V15.6H77.335V39H97.6V33.385H82.95Zm36.934-12.742V15.6h-17.6V39h17.6V34H107.9V29.821h9.467v-5H107.9V20.642h11.986Zm27.143-1.4-4.283-4.283-7.883,7.991L126.8,15.027l-4.284,4.284,8.027,7.919-8.027,8.063,4.284,4.283,8.063-7.955,7.883,7.991,4.283-4.283L139.072,27.3Zm22.5,7.307a8.357,8.357,0,0,0,.972-3.96,6.84,6.84,0,0,0-6.983-6.983H150.99V39H164.2a7.287,7.287,0,0,0,7.235-7.487A7.53,7.53,0,0,0,169.527,26.546ZM156.6,20.174h6.587a2.3,2.3,0,0,1,0,4.571H156.6V20.174Zm7.379,14.11H156.6V29.317h7.379A2.491,2.491,0,0,1,163.984,34.285Zm24.084-19.294a12.328,12.328,0,1,0,12.31,12.346A12.344,12.344,0,0,0,188.068,14.991Zm0,19.258a6.929,6.929,0,1,1,6.911-6.911A6.92,6.92,0,0,1,188.068,34.249ZM228.1,19.239l-4.284-4.283-7.883,7.991-8.063-7.919-4.283,4.284,8.027,7.919-8.027,8.063,4.283,4.283,8.063-7.955,7.883,7.991,4.284-4.283L220.144,27.3Z"/>
  <path class="cls-2" d="M26.624,25.9l-2.3,1.323V51L45,39.118V15.342Zm3.741-21.32L22.415,0,1.169,12.21,9.13,16.792ZM43.65,12.21l-9.162-5.2L13.253,19.226l1.212,0.624,7.95,4.571,7.907-4.539Zm-32,15.755-3.8-1.947V19.966L0,15.469V39.075l20.523,11.8V27.267l-8.875-5.089v5.788Z"/>
</svg>
