<?xml version="1.0" encoding="UTF-8"?>
<svg width="355px" height="88px" viewBox="0 0 355 88" version="1.1" xmlns="http://www.w3.org/2000/svg" xmlns:xlink="http://www.w3.org/1999/xlink">
    <!-- Generator: Sketch 51.3 (57544) - http://www.bohemiancoding.com/sketch -->
    <title>logo</title>
    <desc>Created with Sketch.</desc>
    <defs></defs>
    <g id="Page-2" stroke="none" stroke-width="1" fill="none" fill-rule="evenodd">
        <g id="logo" transform="translate(-62.000000, -54.000000)">
            <g transform="translate(62.000000, 54.000000)">
                <path d="M219.808,34.368 L219.808,58.896 C219.808,64.7200291 218.193349,69.0973187 214.964,72.028 C211.734651,74.9586813 207.133363,76.424 201.16,76.424 C198.098651,76.424 195.24268,76.0973366 192.592,75.444 C189.94132,74.7906634 187.682676,73.8480062 185.816,72.616 L190.072,63.992 C191.266673,64.8880045 192.778658,65.6159972 194.608,66.176 C196.437342,66.7360028 198.191992,67.016 199.872,67.016 C202.410679,67.016 204.258661,66.4746721 205.416,65.392 C206.573339,64.3093279 207.152,62.7226771 207.152,60.632 L207.152,60.072 C205.24799,62.2373442 202.429352,63.32 198.696,63.32 C196.082654,63.32 193.646678,62.7133394 191.388,61.5 C189.129322,60.2866606 187.328007,58.550678 185.984,56.292 C184.639993,54.033322 183.968,51.4480146 183.968,48.536 C183.968,45.6239854 184.639993,43.0480112 185.984,40.808 C187.328007,38.5679888 189.129322,36.8413394 191.388,35.628 C193.646678,34.4146606 196.082654,33.808 198.696,33.808 C202.877354,33.808 205.901324,35.1519866 207.768,37.84 L207.768,34.368 L219.808,34.368 Z M202.056,53.464 C203.549341,53.464 204.790662,53.0066712 205.78,52.092 C206.769338,51.1773288 207.264,49.9920073 207.264,48.536 C207.264,47.0799927 206.769338,45.9040045 205.78,45.008 C204.790662,44.1119955 203.549341,43.664 202.056,43.664 C200.525326,43.664 199.265338,44.1119955 198.276,45.008 C197.286662,45.9040045 196.792,47.0799927 196.792,48.536 C196.792,49.9920073 197.295995,51.1773288 198.304,52.092 C199.312005,53.0066712 200.562659,53.464 202.056,53.464 Z M258.896,34.368 L258.896,65 L246.856,65 L246.856,62.088 C245.735994,63.2453391 244.429341,64.1133304 242.936,64.692 C241.442659,65.2706696 239.856008,65.56 238.176,65.56 C234.293314,65.56 231.176012,64.3746785 228.824,62.004 C226.471988,59.6333215 225.296,56.0586906 225.296,51.28 L225.296,34.368 L237.952,34.368 L237.952,49.096 C237.952,51.1866771 238.287997,52.6799955 238.96,53.576 C239.632003,54.4720045 240.621327,54.92 241.928,54.92 C243.160006,54.92 244.186663,54.4253383 245.008,53.436 C245.829337,52.4466617 246.24,50.8880106 246.24,48.76 L246.24,34.368 L258.896,34.368 Z M264.496,34.368 L277.152,34.368 L277.152,65 L264.496,65 L264.496,34.368 Z M270.824,31.904 C268.546655,31.904 266.708007,31.2973394 265.308,30.084 C263.907993,28.8706606 263.208,27.330676 263.208,25.464 C263.208,23.597324 263.907993,22.0573394 265.308,20.844 C266.708007,19.6306606 268.546655,19.024 270.824,19.024 C273.138678,19.024 274.98666,19.6026609 276.368,20.76 C277.74934,21.9173391 278.44,23.4106575 278.44,25.24 C278.44,27.181343 277.74934,28.7773271 276.368,30.028 C274.98666,31.2786729 273.138678,31.904 270.824,31.904 Z M316.632,23.448 L316.632,65 L304.592,65 L304.592,62.48 C302.762658,64.5333436 299.962686,65.56 296.192,65.56 C293.503987,65.56 291.030678,64.9160064 288.772,63.628 C286.513322,62.3399936 284.72134,60.4826788 283.396,58.056 C282.07066,55.6293212 281.408,52.8293492 281.408,49.656 C281.408,46.4826508 282.07066,43.692012 283.396,41.284 C284.72134,38.875988 286.513322,37.0280064 288.772,35.74 C291.030678,34.4519936 293.503987,33.808 296.192,33.808 C299.58935,33.808 302.183991,34.6853246 303.976,36.44 L303.976,23.448 L316.632,23.448 Z M299.216,55.704 C300.672007,55.704 301.866662,55.1720053 302.8,54.108 C303.733338,53.0439947 304.2,51.5600095 304.2,49.656 C304.2,47.7519905 303.733338,46.2773386 302.8,45.232 C301.866662,44.1866614 300.672007,43.664 299.216,43.664 C297.759993,43.664 296.565338,44.1866614 295.632,45.232 C294.698662,46.2773386 294.232,47.7519905 294.232,49.656 C294.232,51.5600095 294.698662,53.0439947 295.632,54.108 C296.565338,55.1720053 297.759993,55.704 299.216,55.704 Z M354.824,49.656 C354.824,49.8426676 354.768001,50.831991 354.656,52.624 L333.376,52.624 C333.824002,53.7813391 334.570661,54.6679969 335.616,55.284 C336.661339,55.9000031 337.967992,56.208 339.536,56.208 C340.880007,56.208 342.009329,56.0400017 342.924,55.704 C343.838671,55.3679983 344.837328,54.7893374 345.92,53.968 L352.528,60.632 C349.541318,63.9173498 345.08003,65.56 339.144,65.56 C335.447982,65.56 332.200014,64.8786735 329.4,63.516 C326.599986,62.1533265 324.434674,60.2586788 322.904,57.832 C321.373326,55.4053212 320.608,52.6800151 320.608,49.656 C320.608,46.5946514 321.363992,43.860012 322.876,41.452 C324.388008,39.043988 326.459987,37.1680067 329.092,35.824 C331.724013,34.4799933 334.68265,33.808 337.968,33.808 C341.066682,33.808 343.894654,34.4239938 346.452,35.656 C349.009346,36.8880062 351.043992,38.6986547 352.556,41.088 C354.068008,43.4773453 354.824,46.3333167 354.824,49.656 Z M338.08,42.432 C336.773327,42.432 335.690671,42.7866631 334.832,43.496 C333.973329,44.2053369 333.413335,45.2133268 333.152,46.52 L343.008,46.52 C342.746665,45.2506603 342.186671,44.2520036 341.328,43.524 C340.469329,42.7959964 339.386673,42.432 338.08,42.432 Z" id="guide" fill="#050505"></path>
                <path d="M143.928,34.368 L133.288,65 L120.968,65 L116.32,50.832 L111.504,65 L99.184,65 L88.544,34.368 L100.528,34.368 L105.792,50.552 L111.28,34.368 L122.032,34.368 L127.352,50.72 L132.84,34.368 L143.928,34.368 Z M166.832,33.808 C169.520013,33.808 171.993322,34.4519936 174.252,35.74 C176.510678,37.0280064 178.30266,38.8853212 179.628,41.312 C180.95334,43.7386788 181.616,46.5386508 181.616,49.712 C181.616,52.8853492 180.95334,55.675988 179.628,58.084 C178.30266,60.492012 176.510678,62.3399936 174.252,63.628 C171.993322,64.9160064 169.520013,65.56 166.832,65.56 C163.43465,65.56 160.840009,64.6826754 159.048,62.928 L159.048,75.864 L146.392,75.864 L146.392,34.368 L158.432,34.368 L158.432,36.888 C160.261342,34.8346564 163.061314,33.808 166.832,33.808 Z M163.808,55.704 C165.264007,55.704 166.458662,55.1813386 167.392,54.136 C168.325338,53.0906614 168.792,51.6160095 168.792,49.712 C168.792,47.8079905 168.325338,46.3240053 167.392,45.26 C166.458662,44.1959947 165.264007,43.664 163.808,43.664 C162.351993,43.664 161.157338,44.1959947 160.224,45.26 C159.290662,46.3240053 158.824,47.8079905 158.824,49.712 C158.824,51.6160095 159.290662,53.0906614 160.224,54.136 C161.157338,55.1813386 162.351993,55.704 163.808,55.704 Z" id="wp" fill="#0081FF"></path>
                <g id="Simbol" fill-rule="nonzero">
                    <path d="M56,63.1111111 L56,35 L72,24 L72,56 L72,72 L36,88 L36,72 L56,63.1111111 Z" id="Rectangle-7-Copy-2" fill="#0067CC"></path>
                    <path d="M16,63.1111111 L36,72 L36,88 L0,72 L0,56 L0,24 L16,35 L16,63.1111111 Z" id="Rectangle-7-Copy" fill="#0081FF"></path>
                    <polygon id="Rectangle-7-Copy-3" fill="#0081FF" transform="translate(54.000000, 21.500000) rotate(-180.000000) translate(-54.000000, -21.500000) " points="52 8 72 19 72 35 36 19"></polygon>
                    <polygon id="Rectangle-3" fill="#0067CC" points="0 24 36 8 36 24 16 35"></polygon>
                    <polygon id="Rectangle-5-Copy" fill="#0081FF" points="24 0 36 8 36 64 24 59"></polygon>
                    <polygon id="Rectangle-5-Copy-2" fill="#0067CC" points="36 8 48 0 48 59 36 64"></polygon>
                    <polygon id="Rectangle-2" fill="#FFFFFF" points="36 16 48 8 48 16 36 24"></polygon>
                    <polygon id="Rectangle-2-Copy" fill="#FFFFFF" transform="translate(30.000000, 16.000000) scale(-1, 1) translate(-30.000000, -16.000000) " points="24 16 36 8 36 16 24 24"></polygon>
                    <polygon id="Rectangle-2-Copy-3" fill="#FFFFFF" points="36 32 48 24 48 32 36 40"></polygon>
                    <polygon id="Rectangle-2-Copy-2" fill="#FFFFFF" transform="translate(30.000000, 32.000000) scale(-1, 1) translate(-30.000000, -32.000000) " points="24 32 36 24 36 32 24 40"></polygon>
                </g>
            </g>
        </g>
    </g>
</svg>